<svg xmlns="http://www.w3.org/2000/svg" xmlns:xlink="http://www.w3.org/1999/xlink" width="96" zoomAndPan="magnify" viewBox="0 0 72 72" height="96" preserveAspectRatio="xMidYMid meet" version="1.0"><defs><g/></defs><g fill="#000000" fill-opacity="1"><g transform="translate(0.521141, 47.249999)"><g><path d="M 42.953125 -26.640625 C 43.515625 -26.640625 43.945312 -26.550781 44.25 -26.375 C 44.5625 -26.207031 44.71875 -25.960938 44.71875 -25.640625 C 44.71875 -25.503906 44.675781 -25.332031 44.59375 -25.125 C 44.519531 -24.882812 44.410156 -24.703125 44.265625 -24.578125 C 44.117188 -24.460938 43.894531 -24.3125 43.59375 -24.125 C 43.164062 -23.882812 42.828125 -23.613281 42.578125 -23.3125 C 42.328125 -23.019531 42.109375 -22.566406 41.921875 -21.953125 L 37.046875 -4.765625 C 36.929688 -4.410156 36.875 -4.078125 36.875 -3.765625 C 36.875 -3.460938 36.921875 -3.210938 37.015625 -3.015625 C 37.109375 -2.816406 37.238281 -2.582031 37.40625 -2.3125 C 37.507812 -2.1875 37.597656 -2.050781 37.671875 -1.90625 C 37.753906 -1.757812 37.796875 -1.601562 37.796875 -1.4375 C 37.796875 -1.382812 37.769531 -1.253906 37.71875 -1.046875 C 37.613281 -0.691406 37.367188 -0.4375 36.984375 -0.28125 C 36.597656 -0.125 36.039062 -0.046875 35.3125 -0.046875 L 25.921875 -0.046875 C 25.359375 -0.046875 24.921875 -0.132812 24.609375 -0.3125 C 24.304688 -0.5 24.15625 -0.753906 24.15625 -1.078125 C 24.15625 -1.234375 24.195312 -1.40625 24.28125 -1.59375 C 24.363281 -1.78125 24.476562 -1.945312 24.625 -2.09375 C 24.769531 -2.238281 24.898438 -2.34375 25.015625 -2.40625 C 25.140625 -2.476562 25.226562 -2.539062 25.28125 -2.59375 C 25.707031 -2.832031 26.050781 -3.097656 26.3125 -3.390625 C 26.582031 -3.691406 26.8125 -4.148438 27 -4.765625 L 30.046875 -15.5625 L 19.6875 -2.71875 C 18.832031 -1.675781 18.144531 -0.960938 17.625 -0.578125 C 17.101562 -0.191406 16.507812 0 15.84375 0 C 15.195312 0 14.691406 -0.203125 14.328125 -0.609375 C 13.972656 -1.023438 13.648438 -1.726562 13.359375 -2.71875 L 9.59375 -15.078125 L 6.640625 -4.71875 C 6.535156 -4.375 6.484375 -4.039062 6.484375 -3.71875 C 6.484375 -3.394531 6.53125 -3.125 6.625 -2.90625 C 6.71875 -2.695312 6.859375 -2.472656 7.046875 -2.234375 C 7.285156 -1.890625 7.40625 -1.613281 7.40625 -1.40625 C 7.40625 -1.34375 7.375 -1.207031 7.3125 -1 C 7.207031 -0.625 6.96875 -0.363281 6.59375 -0.21875 C 6.226562 -0.0703125 5.671875 0 4.921875 0 L 1.59375 0 C 1.039062 0 0.609375 -0.09375 0.296875 -0.28125 C -0.00390625 -0.46875 -0.15625 -0.722656 -0.15625 -1.046875 C -0.15625 -1.203125 -0.117188 -1.375 -0.046875 -1.5625 C 0.0664062 -1.851562 0.242188 -2.078125 0.484375 -2.234375 C 0.722656 -2.398438 0.867188 -2.492188 0.921875 -2.515625 C 1.347656 -2.785156 1.691406 -3.0625 1.953125 -3.34375 C 2.222656 -3.625 2.453125 -4.082031 2.640625 -4.71875 L 7.515625 -22 L 6.875 -24.125 C 6.75 -24.519531 6.6875 -24.90625 6.6875 -25.28125 C 6.6875 -25.757812 6.835938 -26.101562 7.140625 -26.3125 C 7.441406 -26.53125 7.914062 -26.640625 8.5625 -26.640625 L 14.765625 -26.640625 C 15.554688 -26.640625 16.144531 -26.460938 16.53125 -26.109375 C 16.925781 -25.765625 17.242188 -25.164062 17.484375 -24.3125 L 21.484375 -11.046875 L 32.3125 -24.515625 C 33.007812 -25.367188 33.691406 -25.9375 34.359375 -26.21875 C 35.023438 -26.5 35.90625 -26.640625 37 -26.640625 Z M 42.953125 -26.640625 "/></g></g></g><g fill="#000000" fill-opacity="1"><g transform="translate(41.917028, 47.249999)"><g><path d="M 26.078125 -26.640625 C 27.066406 -26.640625 27.832031 -26.425781 28.375 -26 C 28.925781 -25.570312 29.203125 -24.984375 29.203125 -24.234375 C 29.203125 -23.867188 29.148438 -23.507812 29.046875 -23.15625 L 28 -19.4375 C 27.8125 -18.75 27.503906 -18.253906 27.078125 -17.953125 C 26.648438 -17.660156 26.09375 -17.515625 25.40625 -17.515625 C 24.738281 -17.515625 24.203125 -17.65625 23.796875 -17.9375 C 23.398438 -18.21875 23.109375 -18.675781 22.921875 -19.3125 L 22.28125 -21.59375 C 22.175781 -22 22.039062 -22.265625 21.875 -22.390625 C 21.71875 -22.523438 21.382812 -22.59375 20.875 -22.59375 L 16.875 -22.59375 L 14.640625 -14.6875 L 15.40625 -14.6875 C 15.769531 -14.6875 16.09375 -14.738281 16.375 -14.84375 C 16.65625 -14.945312 16.957031 -15.144531 17.28125 -15.4375 L 18.515625 -16.484375 C 18.972656 -16.878906 19.378906 -17.160156 19.734375 -17.328125 C 20.097656 -17.503906 20.476562 -17.59375 20.875 -17.59375 C 21.382812 -17.59375 21.804688 -17.445312 22.140625 -17.15625 C 22.472656 -16.863281 22.640625 -16.453125 22.640625 -15.921875 C 22.640625 -15.703125 22.597656 -15.445312 22.515625 -15.15625 L 20.765625 -9.078125 C 20.359375 -7.773438 19.632812 -7.125 18.59375 -7.125 C 17.738281 -7.125 17.070312 -7.5625 16.59375 -8.4375 L 15.875 -9.796875 C 15.6875 -10.171875 15.515625 -10.410156 15.359375 -10.515625 C 15.203125 -10.628906 14.960938 -10.6875 14.640625 -10.6875 L 13.484375 -10.6875 L 11.796875 -4.71875 C 11.742188 -4.5625 11.71875 -4.347656 11.71875 -4.078125 C 11.71875 -3.703125 11.800781 -3.394531 11.96875 -3.15625 C 12.144531 -2.914062 12.410156 -2.664062 12.765625 -2.40625 C 13.054688 -2.164062 13.253906 -1.96875 13.359375 -1.8125 C 13.460938 -1.664062 13.515625 -1.488281 13.515625 -1.28125 C 13.515625 -0.800781 13.300781 -0.46875 12.875 -0.28125 C 12.445312 -0.09375 11.820312 0 11 0 L 0.953125 0 C 0.265625 0 -0.25 -0.125 -0.59375 -0.375 C -0.945312 -0.632812 -1.066406 -0.988281 -0.953125 -1.4375 C -0.898438 -1.675781 -0.800781 -1.867188 -0.65625 -2.015625 C -0.507812 -2.160156 -0.289062 -2.328125 0 -2.515625 C 0.457031 -2.785156 0.816406 -3.066406 1.078125 -3.359375 C 1.347656 -3.648438 1.5625 -4.101562 1.71875 -4.71875 L 6.640625 -21.953125 C 6.742188 -22.304688 6.796875 -22.628906 6.796875 -22.921875 C 6.796875 -23.242188 6.75 -23.507812 6.65625 -23.71875 C 6.5625 -23.9375 6.421875 -24.164062 6.234375 -24.40625 C 5.992188 -24.75 5.875 -25.023438 5.875 -25.234375 C 5.875 -25.316406 5.898438 -25.46875 5.953125 -25.6875 C 6.066406 -26.03125 6.304688 -26.273438 6.671875 -26.421875 C 7.046875 -26.566406 7.59375 -26.640625 8.3125 -26.640625 Z M 26.078125 -26.640625 "/></g></g></g></svg>